<svg width="182" height="51" viewBox="0 0 182 51" fill="none" xmlns="http://www.w3.org/2000/svg">
<path d="M63.2566 2.78955H60.7946V48.2109H63.2566V2.78955Z" fill="#58595B"/>
<path d="M16.5441 6.69653H2.70398V45.7687H16.5441V6.69653Z" fill="#58595B"/>
<path d="M32.0583 6.69653H18.2182V45.7687H32.0583V6.69653Z" fill="#58595B"/>
<path d="M55.4066 18.9627L55.8659 5.23132H55.4066C41.1757 5.75476 36.247 14.6581 34.5708 19.9386C34.5666 19.9534 33.7321 23.1048 33.7321 26.2275V37.5178V45.7684H47.5725V37.5178H55.4066V23.786H47.5725C47.5725 18.9607 55.4066 18.9627 55.4066 18.9627Z" fill="#F58220"/>
<path d="M69.8713 5.23132H68.6724V15.0802H69.8713V5.23132Z" fill="#58595B"/>
<path d="M76.8216 10.7224C77.4243 11.5912 78.0205 12.4847 78.6086 13.402H78.6527C78.5888 12.4451 78.5576 11.4685 78.5576 10.4723V5.23132H79.7634V15.0802H78.5648L74.7037 9.58907C74.0371 8.63213 73.4416 7.73894 72.9167 6.90984H72.8726C72.9361 7.80786 72.9684 8.85542 72.9684 10.0529V15.0802H71.7695V5.23132H72.9611L76.8216 10.7224Z" fill="#58595B"/>
<path d="M89.6263 10.1115C89.6263 10.6859 89.5555 11.2252 89.4127 11.7307C89.2709 12.2362 89.0563 12.6914 88.7689 13.0963C88.4823 13.5012 88.1245 13.851 87.6955 14.1453C87.2664 14.4396 86.7651 14.6677 86.1915 14.8296C85.8632 14.923 85.5075 14.9878 85.1253 15.0247C84.7432 15.0616 84.3287 15.0798 83.8823 15.0798H81.6544V5.23096H83.9045C84.3506 5.23096 84.7654 5.24956 85.1476 5.28644C85.5304 5.32296 85.8851 5.38809 86.2138 5.48113C86.787 5.64344 87.2886 5.86915 87.7177 6.15861C88.1464 6.44841 88.5021 6.79025 88.7839 7.1855C89.066 7.5804 89.2765 8.02459 89.4165 8.5177C89.5569 9.01082 89.6263 9.54218 89.6263 10.1115ZM88.4344 10.1115C88.4344 9.1645 88.2256 8.3964 87.8084 7.80749C87.3911 7.21858 86.7925 6.80162 86.0123 6.55627C85.7142 6.46288 85.3814 6.39913 85.0138 6.36467C84.6459 6.33021 84.2311 6.31333 83.7694 6.31333H82.8526V13.9981H83.7694C84.2311 13.9981 84.6459 13.9809 85.0138 13.9464C85.3814 13.9123 85.7142 13.8482 86.0123 13.7552C86.7925 13.5095 87.3911 13.0801 87.8084 12.4668C88.2259 11.8534 88.4344 11.0684 88.4344 10.1115Z" fill="#58595B"/>
<path d="M99.9528 10.1632C99.9528 10.882 99.8447 11.5419 99.6318 12.1425C99.4174 12.7435 99.1113 13.2614 98.7118 13.6966C98.313 14.1319 97.8332 14.4709 97.2715 14.7146C96.7097 14.9585 96.0806 15.0802 95.385 15.0802C94.6652 15.0802 94.0211 14.9585 93.4524 14.7146C92.883 14.4709 92.4015 14.1319 92.0072 13.6966C91.6136 13.2614 91.3117 12.7435 91.1025 12.1425C90.8934 11.5419 90.7888 10.882 90.7888 10.1632C90.7888 9.43882 90.8972 8.77582 91.1136 8.17244C91.3301 7.5694 91.6368 7.05044 92.0329 6.61522C92.4293 6.17999 92.9094 5.84057 93.4732 5.59694C94.0378 5.35331 94.6701 5.23132 95.3704 5.23132C96.0858 5.23132 96.726 5.35331 97.2927 5.59694C97.8593 5.84057 98.3397 6.17999 98.7337 6.61522C99.128 7.05044 99.4292 7.5694 99.6384 8.17244C99.8475 8.77582 99.9528 9.43882 99.9528 10.1632ZM98.7605 10.1632C98.7605 9.52428 98.6736 8.96156 98.5006 8.4743C98.3269 7.98705 98.0879 7.58008 97.7835 7.25375C97.4789 6.92707 97.1193 6.68034 96.7052 6.51218C96.2914 6.34436 95.846 6.26028 95.3704 6.26028C94.8948 6.26028 94.4498 6.34436 94.0357 6.51218C93.6219 6.68034 93.2627 6.92707 92.958 7.25375C92.6527 7.58008 92.414 7.98705 92.2403 8.4743C92.0666 8.96156 91.9797 9.52428 91.9797 10.1632C91.9797 10.8017 92.068 11.3634 92.2438 11.8482C92.4196 12.3331 92.6603 12.7387 92.965 13.065C93.2697 13.3913 93.6292 13.6377 94.0433 13.8031C94.4575 13.9685 94.9046 14.0516 95.3854 14.0516C95.861 14.0516 96.3043 13.9685 96.7125 13.8031C97.1207 13.6377 97.4785 13.3913 97.7832 13.065C98.0879 12.7387 98.3265 12.3331 98.5002 11.8482C98.6736 11.3634 98.7605 10.8017 98.7605 10.1632Z" fill="#58595B"/>
<path d="M106.608 10.7224C107.211 11.5912 107.807 12.4847 108.396 13.402H108.44C108.377 12.4451 108.344 11.4685 108.344 10.4723V5.23132H109.551V15.0802H108.352L104.49 9.58907C103.824 8.63213 103.228 7.73894 102.703 6.90984H102.659C102.722 7.80786 102.755 8.85542 102.755 10.0529V15.0802H101.556V5.23132H102.747L106.608 10.7224Z" fill="#58595B"/>
<path d="M112.639 13.9982H117.685V15.0802H111.441V5.23132H117.412V6.31335H112.639V9.49327H116.883V10.575H112.639V13.9982Z" fill="#58595B"/>
<path d="M120.097 7.92054C120.097 8.20001 120.156 8.43054 120.273 8.61249C120.391 8.79478 120.548 8.94502 120.746 9.06287C120.944 9.18141 121.174 9.27824 121.435 9.35405C121.697 9.42986 121.969 9.50051 122.253 9.56667C122.635 9.65661 123.01 9.7562 123.379 9.86474C123.748 9.97363 124.076 10.1239 124.365 10.3155C124.653 10.5071 124.887 10.7566 125.066 11.0639C125.244 11.3717 125.333 11.7666 125.333 12.249C125.333 12.7411 125.237 13.1653 125.044 13.5226C124.851 13.8796 124.583 14.1732 124.242 14.4027C123.901 14.6322 123.497 14.8024 123.032 14.9134C122.566 15.0247 122.056 15.0802 121.502 15.0802C121.247 15.0802 120.987 15.0647 120.719 15.034C120.452 15.0033 120.197 14.962 119.954 14.91C119.712 14.8579 119.492 14.7986 119.296 14.7325C119.1 14.6663 118.946 14.6002 118.832 14.5337V13.4768C119.009 13.5616 119.208 13.6398 119.428 13.7108C119.649 13.7814 119.877 13.8421 120.112 13.8917C120.348 13.9413 120.585 13.9802 120.826 14.0085C121.065 14.0371 121.292 14.0516 121.502 14.0516C121.845 14.0516 122.173 14.023 122.484 13.9661C122.796 13.9096 123.069 13.8148 123.304 13.6825C123.539 13.5498 123.725 13.3689 123.863 13.1398C123.999 12.9099 124.069 12.6229 124.069 12.2776C124.069 11.9933 124.009 11.7597 123.889 11.575C123.768 11.3906 123.607 11.2376 123.406 11.117C123.205 10.9967 122.974 10.8985 122.711 10.8227C122.449 10.7472 122.174 10.6763 121.884 10.6098C121.502 10.5246 121.128 10.4288 120.762 10.3227C120.397 10.2159 120.072 10.0684 119.785 9.87922C119.498 9.69003 119.267 9.44606 119.093 9.14833C118.919 8.85026 118.832 8.46948 118.832 8.00565C118.832 7.52322 118.924 7.10833 119.106 6.76029C119.289 6.41294 119.537 6.12555 119.849 5.89846C120.162 5.67137 120.522 5.50321 120.929 5.39432C121.335 5.28577 121.769 5.23132 122.23 5.23132C122.754 5.23132 123.244 5.27991 123.697 5.37709C124.151 5.47392 124.566 5.60038 124.944 5.75649V6.82783C124.536 6.66242 124.116 6.52769 123.682 6.42362C123.248 6.31955 122.784 6.26511 122.288 6.26028C121.916 6.26028 121.592 6.29922 121.318 6.3771C121.043 6.45532 120.815 6.56663 120.634 6.71101C120.452 6.85505 120.318 7.03011 120.23 7.23583C120.142 7.44155 120.097 7.66967 120.097 7.92054Z" fill="#58595B"/>
<path d="M128.047 5.23132H126.849V15.0802H128.047V5.23132Z" fill="#58595B"/>
<path d="M128.953 15.0802L132.96 5.23132H133.997L138.006 15.0802H136.704L135.529 12.1136H131.415L130.239 15.0802H128.953ZM133.468 6.76236C133.029 7.98808 132.61 9.10215 132.211 10.1042L131.842 11.0319H135.104L134.732 10.1049C134.327 9.08527 133.916 7.97085 133.497 6.76236H133.468Z" fill="#58595B"/>
<path d="M69.8713 20.6678H68.6724V30.5167H69.8713V20.6678Z" fill="#58595B"/>
<path d="M76.8216 26.1586C77.4243 27.0273 78.0205 27.9209 78.6086 28.8382H78.6527C78.5888 27.8812 78.5576 26.9046 78.5576 25.9081V20.6675H79.7634V30.5163H78.5648L74.7037 25.0252C74.0371 24.069 73.4416 23.1751 72.9167 22.346H72.8726C72.9361 23.244 72.9684 24.2916 72.9684 25.489V30.5163H71.7695V20.6675H72.9611L76.8216 26.1586Z" fill="#58595B"/>
<path d="M82.8529 30.5167H81.6544V20.6678H87.5224V21.7495H82.8529V24.9298H86.9933V26.0115H82.8529V30.5167Z" fill="#58595B"/>
<path d="M89.8473 26.4384V30.5163H88.6484V20.6675H91.1977C91.6292 20.6675 91.995 20.6837 92.2962 20.7157C92.5981 20.7474 92.8729 20.7977 93.1227 20.8663C93.8081 21.0531 94.3324 21.3705 94.6947 21.8198C95.0571 22.2685 95.2381 22.8291 95.2381 23.5014C95.2381 23.8991 95.1742 24.2547 95.0467 24.569C94.9192 24.8829 94.7406 25.1555 94.5099 25.386C94.2792 25.6165 94.0037 25.8054 93.6827 25.9532C93.3617 26.1004 93.0042 26.2079 92.6127 26.2768V26.3064L95.525 30.5163H94.3261L91.2957 26.4384H89.8473ZM89.8473 21.7495V25.3564H91.032C91.3992 25.3564 91.7133 25.3443 91.9731 25.3195C92.233 25.2957 92.4658 25.2509 92.6721 25.1875C93.0887 25.0597 93.409 24.856 93.6355 24.5766C93.8606 24.2968 93.9735 23.9315 93.9735 23.4801C93.9687 23.0572 93.861 22.7175 93.6497 22.4604C93.4389 22.2026 93.147 22.0173 92.7743 21.9046C92.5978 21.8505 92.3869 21.8112 92.142 21.7867C91.8971 21.7623 91.5854 21.7499 91.2078 21.7499L89.8473 21.7495Z" fill="#58595B"/>
<path d="M95.9669 30.5167L99.9743 20.6678H101.011L105.02 30.5167H103.718L102.543 27.5504H98.429L97.253 30.5167H95.9669ZM100.482 22.1989C100.043 23.4249 99.6234 24.5387 99.2246 25.5408L98.856 26.4681H102.118L101.745 25.5414C101.342 24.5211 100.93 23.407 100.512 22.1989H100.482Z" fill="#58595B"/>
<path d="M106.881 23.3567C106.881 23.6362 106.94 23.8664 107.057 24.0487C107.175 24.231 107.332 24.3812 107.53 24.4994C107.728 24.618 107.958 24.7148 108.22 24.7906C108.48 24.8661 108.754 24.9374 109.037 25.0032C109.419 25.0935 109.794 25.1927 110.163 25.3013C110.532 25.4102 110.861 25.5604 111.149 25.752C111.437 25.944 111.671 26.1931 111.85 26.5005C112.028 26.8082 112.118 27.2031 112.118 27.6855C112.118 28.1776 112.021 28.6018 111.828 28.9592C111.634 29.3158 111.367 29.6098 111.026 29.8393C110.685 30.0684 110.281 30.2386 109.815 30.3496C109.35 30.4609 108.84 30.5164 108.287 30.5164C108.032 30.5164 107.771 30.5009 107.503 30.4702C107.235 30.4392 106.981 30.3982 106.738 30.3462C106.496 30.2941 106.276 30.2348 106.08 30.1687C105.884 30.1025 105.73 30.036 105.617 29.9699V28.913C105.793 28.9978 105.991 29.0763 106.213 29.1473C106.433 29.2179 106.661 29.2786 106.897 29.3279C107.132 29.3772 107.37 29.4164 107.61 29.4447C107.85 29.4733 108.076 29.4878 108.287 29.4878C108.63 29.4878 108.957 29.4588 109.268 29.402C109.579 29.3454 109.853 29.251 110.088 29.1187C110.324 28.9864 110.51 28.8055 110.647 28.576C110.784 28.3468 110.853 28.0594 110.853 27.7138C110.853 27.4302 110.793 27.1959 110.672 27.0115C110.552 26.8272 110.391 26.6742 110.191 26.5539C109.99 26.4329 109.758 26.3351 109.496 26.2596C109.234 26.1841 108.958 26.1128 108.669 26.0466C108.286 25.9615 107.912 25.8657 107.547 25.7593C107.182 25.6524 106.855 25.5053 106.569 25.3158C106.282 25.1266 106.052 24.8829 105.878 24.5852C105.703 24.2871 105.617 23.9064 105.617 23.4429C105.617 22.9601 105.708 22.5456 105.891 22.1975C106.074 21.8495 106.321 21.5624 106.634 21.335C106.946 21.1083 107.306 20.9401 107.712 20.8312C108.119 20.7227 108.553 20.6682 109.015 20.6682C109.538 20.6682 110.028 20.7165 110.481 20.8136C110.935 20.9108 111.35 21.0373 111.727 21.1934V22.2647C111.321 22.0993 110.9 21.9646 110.467 21.8602C110.032 21.7564 109.568 21.7017 109.073 21.6972C108.701 21.6972 108.377 21.7361 108.103 21.8143C107.828 21.8922 107.599 22.0032 107.418 22.1476C107.236 22.2923 107.102 22.467 107.014 22.6727C106.925 22.8781 106.881 23.1062 106.881 23.3567Z" fill="#58595B"/>
<path d="M117.163 30.5167H115.964V21.7495H112.677V20.6678H120.45V21.7495H117.163V30.5167Z" fill="#58595B"/>
<path d="M122.591 26.4384V30.5163H121.392V20.6675H123.942C124.372 20.6675 124.739 20.6837 125.039 20.7157C125.341 20.7474 125.616 20.7977 125.867 20.8663C126.551 21.0531 127.076 21.3705 127.438 21.8198C127.8 22.2685 127.982 22.8291 127.982 23.5014C127.982 23.8991 127.917 24.2547 127.791 24.569C127.663 24.8829 127.484 25.1555 127.254 25.386C127.023 25.6165 126.748 25.8054 126.426 25.9532C126.104 26.1004 125.748 26.2079 125.356 26.2768V26.3064L128.268 30.5163H127.07L124.04 26.4384H122.591ZM122.591 21.7495V25.3564H123.775C124.143 25.3564 124.457 25.3443 124.716 25.3195C124.976 25.2957 125.209 25.2509 125.415 25.1875C125.832 25.0597 126.153 24.856 126.378 24.5766C126.604 24.2968 126.717 23.9315 126.717 23.4801C126.712 23.0572 126.604 22.7175 126.393 22.4604C126.183 22.2026 125.89 22.0173 125.518 21.9046C125.341 21.8505 125.131 21.8112 124.885 21.7867C124.64 21.7623 124.329 21.7499 123.951 21.7499L122.591 21.7495Z" fill="#58595B"/>
<path d="M133.505 29.4691C133.863 29.4691 134.18 29.4285 134.457 29.3461C134.735 29.2648 134.976 29.1487 135.182 28.9991C135.388 28.8502 135.559 28.6707 135.697 28.4609C135.834 28.2513 135.94 28.0191 136.013 27.7637C136.062 27.6049 136.096 27.4278 136.116 27.2327C136.135 27.0377 136.145 26.8488 136.145 26.6655V20.6678H137.344V26.6362C137.344 26.863 137.332 27.099 137.307 27.3444C137.283 27.5904 137.244 27.8192 137.19 28.0311C137.097 28.3875 136.957 28.7172 136.77 29.0208C136.585 29.3248 136.342 29.5873 136.042 29.8086C135.743 30.0298 135.384 30.2035 134.965 30.3289C134.545 30.4536 134.054 30.5167 133.49 30.5167C132.951 30.5167 132.478 30.4588 132.071 30.3434C131.663 30.2279 131.315 30.0674 131.023 29.8627C130.731 29.658 130.492 29.4143 130.306 29.1325C130.12 28.8509 129.975 28.5436 129.872 28.2117C129.798 27.9708 129.746 27.7127 129.714 27.4381C129.682 27.1635 129.666 26.8964 129.666 26.6362V20.6678H130.865V26.6652C130.865 26.8819 130.88 27.1045 130.912 27.3333C130.945 27.5622 130.994 27.7706 131.064 27.9584C131.235 28.4254 131.52 28.7941 131.92 29.0639C132.32 29.3337 132.848 29.4691 133.505 29.4691Z" fill="#58595B"/>
<path d="M143.96 21.6964C143.409 21.6964 142.894 21.7805 142.416 21.9483C141.936 22.1165 141.521 22.367 141.169 22.7006C140.815 23.0342 140.538 23.448 140.334 23.9425C140.131 24.4367 140.029 25.0121 140.029 25.67C140.029 26.323 140.123 26.8895 140.312 27.3695C140.501 27.8502 140.768 28.2472 141.116 28.5615C141.463 28.8761 141.881 29.1094 142.37 29.2606C142.859 29.4119 143.404 29.4877 144.004 29.4877C144.168 29.4877 144.342 29.4791 144.525 29.4629C144.708 29.4464 144.894 29.4226 145.08 29.3919C145.266 29.3609 145.447 29.3258 145.623 29.2854C145.799 29.2455 145.957 29.2014 146.096 29.1542V30.1759C145.806 30.2844 145.471 30.3685 145.088 30.4274C144.706 30.4867 144.314 30.5163 143.912 30.5163C143.094 30.5163 142.368 30.4068 141.735 30.1866C141.102 29.9664 140.571 29.6504 140.142 29.2389C139.714 28.8275 139.389 28.3251 139.168 27.7313C138.947 27.1376 138.838 26.4642 138.838 25.7127C138.838 24.9746 138.954 24.2957 139.186 23.6761C139.42 23.0566 139.755 22.5242 140.194 22.0796C140.633 21.6351 141.165 21.2884 141.79 21.04C142.415 20.7919 143.117 20.6675 143.896 20.6675C144.103 20.6675 144.306 20.6761 144.507 20.6923C144.708 20.7088 144.901 20.733 145.085 20.7636C145.268 20.7943 145.439 20.8308 145.596 20.8732C145.752 20.9159 145.887 20.9611 146 21.0079V22.0297C145.702 21.9356 145.377 21.856 145.024 21.7922C144.673 21.7285 144.317 21.6964 143.96 21.6964Z" fill="#58595B"/>
<path d="M151.009 30.5167H149.811V21.7495H146.524V20.6678H154.297V21.7495H151.009V30.5167Z" fill="#58595B"/>
<path d="M159.041 29.4691C159.398 29.4691 159.716 29.4285 159.993 29.3461C160.27 29.2648 160.512 29.1487 160.718 28.9991C160.924 28.8502 161.095 28.6707 161.233 28.4609C161.369 28.2513 161.475 28.0191 161.548 27.7637C161.597 27.6049 161.632 27.4278 161.652 27.2327C161.671 27.0377 161.681 26.8488 161.681 26.6655V20.6678H162.88V26.6362C162.88 26.863 162.867 27.099 162.843 27.3444C162.819 27.5904 162.779 27.8192 162.725 28.0311C162.632 28.3875 162.492 28.7172 162.306 29.0208C162.12 29.3248 161.877 29.5873 161.578 29.8086C161.279 30.0301 160.92 30.2035 160.501 30.3289C160.081 30.4536 159.589 30.5167 159.026 30.5167C158.486 30.5167 158.014 30.4588 157.606 30.3434C157.199 30.2279 156.85 30.0674 156.558 29.8627C156.267 29.658 156.028 29.4143 155.841 29.1325C155.655 28.8509 155.511 28.5436 155.408 28.2117C155.334 27.9708 155.281 27.7127 155.249 27.4381C155.218 27.1635 155.201 26.8964 155.201 26.6362V20.6678H156.4V26.6652C156.4 26.8819 156.416 27.1045 156.448 27.3333C156.48 27.5622 156.53 27.7706 156.599 27.9584C156.771 28.4254 157.056 28.7941 157.456 29.0639C157.855 29.3337 158.384 29.4691 159.041 29.4691Z" fill="#58595B"/>
<path d="M165.94 26.4384V30.5163H164.741V20.6675H167.29C167.721 20.6675 168.088 20.6837 168.389 20.7157C168.689 20.7474 168.965 20.7977 169.215 20.8663C169.901 21.0531 170.424 21.3705 170.787 21.8198C171.15 22.2685 171.331 22.8291 171.331 23.5014C171.331 23.8991 171.266 24.2547 171.139 24.569C171.012 24.8829 170.832 25.1555 170.603 25.386C170.372 25.6165 170.096 25.8054 169.775 25.9532C169.454 26.1004 169.098 26.2079 168.705 26.2768V26.3064L171.617 30.5163H170.419L167.388 26.4384H165.94ZM165.94 21.7495V25.3564H167.124C167.492 25.3564 167.805 25.3443 168.065 25.3195C168.325 25.2957 168.558 25.2509 168.764 25.1875C169.181 25.0597 169.502 24.856 169.727 24.5766C169.953 24.2968 170.065 23.9315 170.065 23.4801C170.061 23.0572 169.954 22.7175 169.742 22.4604C169.531 22.2026 169.239 22.0173 168.867 21.9046C168.69 21.8505 168.479 21.8112 168.234 21.7867C167.989 21.7623 167.677 21.7499 167.3 21.7499L165.94 21.7495Z" fill="#58595B"/>
<path d="M174.251 29.4347H179.296V30.5167H173.052V20.6678H179.023V21.7495H174.251V24.9294H178.494V26.0111H174.251V29.4347Z" fill="#58595B"/>
<path d="M69.8717 45.7684H68.6724V35.9196H74.5412V37.0016H69.8717V40.1815H74.0121V41.2635H69.8717V45.7684Z" fill="#58595B"/>
<path d="M76.8657 35.9196H75.6667V45.7684H76.8657V35.9196Z" fill="#58595B"/>
<path d="M83.8159 41.4106C84.4187 42.2794 85.0148 43.1729 85.6034 44.0899H85.6475C85.5832 43.1333 85.5519 42.157 85.5519 41.1601V35.9192H86.7578V45.768H85.5596L81.6985 40.2773C81.0318 39.3203 80.436 38.4271 79.9111 37.5977H79.8669C79.9309 38.4957 79.9628 39.5433 79.9628 40.7408V45.768H78.7639V35.9192H79.9552L83.8159 41.4106Z" fill="#58595B"/>
<path d="M87.6555 45.7684L91.6636 35.9196H92.7002L96.709 45.7684H95.4069L94.2323 42.8021H90.1176L88.9423 45.7684H87.6555ZM92.1718 37.4509C91.732 38.677 91.3127 39.7907 90.9135 40.7928L90.5456 41.7201H93.8071L93.434 40.7935C93.0303 39.7735 92.6196 38.6594 92.201 37.4509H92.1718Z" fill="#58595B"/>
<path d="M102.667 41.4106C103.269 42.2794 103.865 43.1729 104.454 44.0899H104.498C104.434 43.1333 104.403 42.157 104.403 41.1601V35.9192H105.609V45.768H104.41L100.549 40.2773C99.8815 39.3203 99.2864 38.4271 98.7618 37.5977H98.7177C98.7809 38.4957 98.8126 39.5433 98.8126 40.7408V45.768H97.6136V35.9192H98.806L102.667 41.4106Z" fill="#58595B"/>
<path d="M112.254 36.9485C111.703 36.9485 111.188 37.0326 110.71 37.2001C110.23 37.3686 109.815 37.6195 109.462 37.953C109.109 38.2866 108.831 38.7005 108.628 39.1949C108.424 39.6894 108.323 40.2649 108.323 40.9227C108.323 41.5754 108.417 42.1419 108.606 42.6223C108.794 43.1023 109.062 43.4996 109.41 43.8142C109.757 44.1289 110.175 44.3621 110.664 44.5131C111.152 44.6644 111.698 44.7402 112.297 44.7402C112.462 44.7402 112.635 44.7319 112.818 44.7154C113.002 44.6988 113.188 44.6754 113.373 44.6444C113.56 44.6137 113.741 44.5782 113.917 44.5375C114.093 44.4979 114.251 44.4538 114.39 44.4066V45.428C114.1 45.5372 113.765 45.6209 113.382 45.6802C112.999 45.7391 112.607 45.7688 112.205 45.7688C111.387 45.7688 110.661 45.6592 110.029 45.439C109.396 45.2188 108.865 44.9032 108.436 44.4917C108.007 44.0799 107.682 43.5775 107.462 42.9841C107.241 42.39 107.131 41.7174 107.131 40.9651C107.131 40.227 107.247 39.5485 107.48 38.9286C107.713 38.3093 108.049 37.7766 108.488 37.3321C108.926 36.8875 109.459 36.5409 110.084 36.2924C110.709 36.044 111.411 35.9199 112.19 35.9199C112.397 35.9199 112.599 35.9282 112.801 35.9447C113.002 35.9613 113.195 35.9851 113.378 36.0157C113.562 36.0467 113.733 36.0829 113.889 36.1256C114.046 36.1684 114.181 36.2132 114.294 36.2604V37.2821C113.996 37.188 113.67 37.1084 113.318 37.045C112.966 36.9806 112.611 36.9485 112.254 36.9485Z" fill="#58595B"/>
<path d="M116.972 44.6867H122.016V45.7684H115.773V35.9196H121.744V37.0016H116.972V40.1815H121.215V41.2632H116.972V44.6867Z" fill="#58595B"/>
</svg>
