<svg width="135" height="35" viewBox="0 0 135 35" fill="none" xmlns="http://www.w3.org/2000/svg">
<path d="M46.2817 0H44.3999V35H46.2817V0Z" fill="white"/>
<path d="M10.5783 3.01057H0V33.1181H10.5783V3.01057Z" fill="white"/>
<path d="M22.4362 3.01057H11.8579V33.1181H22.4362V3.01057Z" fill="white"/>
<path d="M40.2816 12.462L40.6326 1.8811H40.2816C29.4046 2.28444 25.6375 9.14498 24.3563 13.214C24.3531 13.2254 23.7153 15.6537 23.7153 18.0599V26.7598V33.1174H34.2938V26.7598H40.2816V16.1786H34.2938C34.2938 12.4604 40.2816 12.462 40.2816 12.462Z" fill="#F58220"/>
<path d="M51.3372 1.8811H50.4209V9.47026H51.3372V1.8811Z" fill="white"/>
<path d="M56.6495 6.11234C57.1101 6.78175 57.5658 7.47027 58.0153 8.17712H58.0491C58.0002 7.43974 57.9763 6.68722 57.9763 5.91957V1.8811H58.898V9.47026H57.9819L55.0308 5.23901C54.5212 4.50163 54.0661 3.81337 53.6649 3.1745H53.6311C53.6797 3.86648 53.7044 4.67369 53.7044 5.59642V9.47026H52.7881V1.8811H53.6989L56.6495 6.11234Z" fill="white"/>
<path d="M66.4364 5.64182C66.4364 6.08446 66.3822 6.50002 66.2731 6.88955C66.1648 7.27909 66.0007 7.62986 65.7811 7.94186C65.562 8.25386 65.2885 8.52337 64.9606 8.75013C64.6327 8.9769 64.2495 9.15268 63.8111 9.27748C63.5602 9.34944 63.2883 9.39936 62.9962 9.42777C62.7041 9.45618 62.3873 9.47026 62.0461 9.47026H60.3433V1.8811H62.0631C62.4041 1.8811 62.7211 1.89543 63.0132 1.92385C63.3058 1.95199 63.5769 2.00218 63.8281 2.07387C64.2662 2.19894 64.6497 2.37286 64.9776 2.59591C65.3053 2.81922 65.5772 3.08263 65.7925 3.38719C66.0081 3.69149 66.169 4.03376 66.276 4.41374C66.3833 4.79371 66.4364 5.20316 66.4364 5.64182ZM65.5254 5.64182C65.5254 4.91214 65.3658 4.32027 65.0469 3.86648C64.728 3.41268 64.2705 3.09139 63.6741 2.90233C63.4463 2.83037 63.1919 2.78125 62.911 2.75469C62.6298 2.72814 62.3127 2.71513 61.9598 2.71513H61.2591V8.63675H61.9598C62.3127 8.63675 62.6298 8.62348 62.911 8.59692C63.1919 8.57064 63.4463 8.52125 63.6741 8.44955C64.2705 8.26023 64.728 7.92938 65.0469 7.45673C65.3661 6.98408 65.5254 6.3792 65.5254 5.64182Z" fill="white"/>
<path d="M74.3294 5.68139C74.3294 6.23528 74.2468 6.74378 74.084 7.2066C73.9202 7.66969 73.6863 8.06878 73.3809 8.40415C73.0761 8.73951 72.7094 9.0008 72.28 9.18853C71.8507 9.37652 71.3698 9.47026 70.8382 9.47026C70.288 9.47026 69.7957 9.37652 69.361 9.18853C68.9258 9.0008 68.5578 8.73951 68.2564 8.40415C67.9556 8.06878 67.7248 7.66969 67.565 7.2066C67.4051 6.74378 67.3252 6.23528 67.3252 5.68139C67.3252 5.12324 67.408 4.61235 67.5735 4.14741C67.7389 3.68273 67.9734 3.28284 68.2761 2.94747C68.579 2.6121 68.946 2.35056 69.377 2.16283C69.8084 1.97509 70.2917 1.8811 70.827 1.8811C71.3738 1.8811 71.8631 1.97509 72.2962 2.16283C72.7293 2.35056 73.0965 2.6121 73.3976 2.94747C73.699 3.28284 73.9292 3.68273 74.0891 4.14741C74.2489 4.61235 74.3294 5.12324 74.3294 5.68139ZM73.4181 5.68139C73.4181 5.18909 73.3517 4.75548 73.2195 4.38001C73.0867 4.00455 72.904 3.69096 72.6714 3.4395C72.4385 3.18778 72.1637 2.99766 71.8472 2.86808C71.531 2.73876 71.1905 2.67397 70.827 2.67397C70.4635 2.67397 70.1234 2.73876 69.8069 2.86808C69.4906 2.99766 69.216 3.18778 68.9832 3.4395C68.7498 3.69096 68.5674 4.00455 68.4346 4.38001C68.3018 4.75548 68.2354 5.18909 68.2354 5.68139C68.2354 6.17342 68.3029 6.60623 68.4372 6.97984C68.5716 7.35344 68.7556 7.66597 68.9885 7.91743C69.2214 8.16889 69.4962 8.35874 69.8127 8.4862C70.1292 8.61365 70.4709 8.67765 70.8384 8.67765C71.202 8.67765 71.5408 8.61365 71.8528 8.4862C72.1648 8.35874 72.4383 8.16889 72.6711 7.91743C72.904 7.66597 73.0864 7.35344 73.2192 6.97984C73.3517 6.60623 73.4181 6.17342 73.4181 5.68139Z" fill="white"/>
<path d="M79.4161 6.11234C79.8771 6.78175 80.3324 7.47027 80.7823 8.17712H80.816C80.7677 7.43974 80.7429 6.68722 80.7429 5.91957V1.8811H81.6651V9.47026H80.7488L77.7969 5.23901C77.2876 4.50163 76.8322 3.81337 76.4313 3.1745H76.3975C76.4459 3.86648 76.4705 4.67369 76.4705 5.59642V9.47026H75.5542V1.8811H76.465L79.4161 6.11234Z" fill="white"/>
<path d="M84.0257 8.63649H87.8823V9.47026H83.1099V1.8811H87.6736V2.71487H84.0257V5.16519H87.2697V5.9987H84.0257V8.63649Z" fill="white"/>
<path d="M89.7256 3.95331C89.7256 4.16865 89.7707 4.34629 89.8605 4.48649C89.9502 4.62696 90.0705 4.74273 90.2219 4.83354C90.3732 4.92489 90.549 4.9995 90.7487 5.05792C90.9484 5.11633 91.1568 5.17077 91.3737 5.22175C91.6653 5.29105 91.9521 5.36779 92.2341 5.45144C92.5163 5.53534 92.7673 5.65111 92.9876 5.79875C93.208 5.94639 93.3865 6.13863 93.5235 6.37548C93.66 6.6126 93.7279 6.9169 93.7279 7.28865C93.7279 7.66783 93.6544 7.9947 93.5065 8.27005C93.3591 8.54515 93.1544 8.77138 92.8939 8.94822C92.6332 9.12507 92.3243 9.25624 91.9688 9.34174C91.6125 9.42751 91.2229 9.47026 90.7999 9.47026C90.605 9.47026 90.4059 9.45831 90.2009 9.43468C89.997 9.41104 89.8021 9.37918 89.6165 9.33909C89.4314 9.29899 89.2633 9.25332 89.1133 9.20234C88.9635 9.15135 88.8456 9.10037 88.7591 9.04912V8.23474C88.8939 8.30006 89.0458 8.36033 89.2144 8.41503C89.3831 8.46947 89.5572 8.5162 89.7373 8.55444C89.9173 8.59267 90.0987 8.62268 90.2829 8.64445C90.4659 8.66649 90.6387 8.67765 90.7999 8.67765C91.0617 8.67765 91.3124 8.65561 91.5498 8.61179C91.7882 8.56825 91.9969 8.49522 92.1767 8.39326C92.3567 8.29103 92.4988 8.15163 92.604 7.97505C92.7083 7.79794 92.7617 7.57675 92.7617 7.31069C92.7617 7.09162 92.7155 6.91159 92.6236 6.76927C92.5312 6.62721 92.4088 6.50931 92.2548 6.41638C92.1013 6.32371 91.9245 6.24803 91.7237 6.18961C91.5235 6.13146 91.3129 6.07676 91.0915 6.02551C90.7994 5.95993 90.5137 5.88611 90.2341 5.80433C89.955 5.72201 89.7062 5.60836 89.4869 5.46259C89.2675 5.31681 89.0912 5.12881 88.9585 4.89939C88.8252 4.66971 88.7588 4.3763 88.7588 4.01889C88.7588 3.64715 88.8289 3.32745 88.9683 3.05926C89.1082 2.7916 89.2975 2.57015 89.5363 2.39517C89.7752 2.22018 90.0503 2.0906 90.3613 2.00669C90.6719 1.92305 91.0033 1.8811 91.356 1.8811C91.7564 1.8811 92.1308 1.91854 92.4773 1.99342C92.8243 2.06803 93.1411 2.16548 93.43 2.28577V3.1113C93.1188 2.98385 92.7973 2.88003 92.4659 2.79984C92.134 2.71965 91.7792 2.67769 91.4006 2.67397C91.1159 2.67397 90.8684 2.70398 90.6589 2.76399C90.4489 2.82426 90.2747 2.91003 90.1361 3.02129C89.9972 3.13228 89.8945 3.26717 89.827 3.42569C89.7598 3.58422 89.7256 3.76 89.7256 3.95331Z" fill="white"/>
<path d="M95.8021 1.8811H94.8862V9.47026H95.8021V1.8811Z" fill="white"/>
<path d="M96.4946 9.47026L99.5575 1.8811H100.35L103.414 9.47026H102.419L101.521 7.18429H98.3765L97.4776 9.47026H96.4946ZM99.9455 3.06085C99.6098 4.00535 99.2893 4.86381 98.9845 5.63598L98.7028 6.35079H101.196L100.911 5.63651C100.602 4.8508 100.288 3.99207 99.9678 3.06085H99.9455Z" fill="white"/>
<path d="M51.3372 13.7771H50.4209V21.3663H51.3372V13.7771Z" fill="white"/>
<path d="M56.6495 18.007C57.1101 18.6764 57.5658 19.3649 58.0153 20.0718H58.0491C58.0002 19.3344 57.9763 18.5819 57.9763 17.814V13.7757H58.898V21.3649H57.9819L55.0308 17.1337C54.5212 16.3968 54.0661 15.708 53.6649 15.0692H53.6311C53.6797 15.7611 53.7044 16.5683 53.7044 17.4911V21.3649H52.7881V13.7757H53.6989L56.6495 18.007Z" fill="white"/>
<path d="M61.2593 21.3663H60.3433V13.7771H64.8284V14.6106H61.2593V17.0612H64.424V17.8947H61.2593V21.3663Z" fill="white"/>
<path d="M66.6053 18.2226V21.3649H65.689V13.7757H67.6374C67.9672 13.7757 68.2468 13.7882 68.477 13.8129C68.7078 13.8374 68.9178 13.8761 69.1087 13.929C69.6326 14.0729 70.0333 14.3174 70.3103 14.6637C70.5872 15.0094 70.7256 15.4414 70.7256 15.9595C70.7256 16.2659 70.6767 16.5399 70.5793 16.7821C70.4818 17.024 70.3453 17.234 70.169 17.4117C69.9927 17.5893 69.7821 17.7348 69.5368 17.8487C69.2914 17.9621 69.0182 18.045 68.7189 18.0981V18.1209L70.9449 21.3649H70.0285L67.7123 18.2226H66.6053ZM66.6053 14.6095V17.3888H67.5108C67.7914 17.3888 68.0315 17.3795 68.2301 17.3604C68.4287 17.3421 68.6066 17.3076 68.7643 17.2587C69.0827 17.1602 69.3275 17.0033 69.5007 16.7879C69.6727 16.5723 69.759 16.2909 69.759 15.943C69.7553 15.6172 69.673 15.3554 69.5116 15.1573C69.3504 14.9587 69.1273 14.8158 68.8424 14.729C68.7075 14.6873 68.5463 14.657 68.3591 14.6382C68.1719 14.6193 67.9338 14.6098 67.6451 14.6098L66.6053 14.6095Z" fill="white"/>
<path d="M71.2827 21.3663L74.3456 13.7771H75.138L78.2019 21.3663H77.2067L76.309 19.0806H73.1645L72.2657 21.3663H71.2827ZM74.7336 14.9569C74.3979 15.9016 74.0774 16.7598 73.7726 17.532L73.4909 18.2465H75.984L75.6993 17.5325C75.3908 16.7463 75.0758 15.8878 74.7564 14.9569H74.7336Z" fill="white"/>
<path d="M79.6247 15.8488C79.6247 16.0641 79.6699 16.2415 79.7591 16.382C79.8494 16.5224 79.9697 16.6382 80.1205 16.7293C80.2718 16.8206 80.4482 16.8952 80.6478 16.9537C80.847 17.0118 81.056 17.0668 81.2724 17.1175C81.5644 17.1871 81.8512 17.2635 82.1332 17.3472C82.4155 17.4311 82.6664 17.5469 82.8868 17.6945C83.1072 17.8424 83.2856 18.0344 83.4226 18.2712C83.5586 18.5084 83.6271 18.8127 83.6271 19.1844C83.6271 19.5636 83.5535 19.8904 83.4056 20.1658C83.2577 20.4406 83.0536 20.6671 82.7925 20.844C82.5323 21.0205 82.2235 21.1517 81.8674 21.2372C81.5116 21.323 81.1221 21.3657 80.6991 21.3657C80.5042 21.3657 80.3045 21.3538 80.1 21.3302C79.8956 21.3063 79.7007 21.2747 79.5156 21.2346C79.33 21.1945 79.1624 21.1488 79.0122 21.0978C78.8627 21.0468 78.745 20.9956 78.6585 20.9446V20.1302C78.7934 20.1955 78.9447 20.2561 79.1139 20.3108C79.2825 20.3652 79.4567 20.4119 79.6367 20.4499C79.8167 20.4879 79.9981 20.5182 80.1818 20.5399C80.3653 20.562 80.5382 20.5731 80.6993 20.5731C80.9612 20.5731 81.2113 20.5508 81.4492 20.507C81.6871 20.4635 81.8964 20.3907 82.0761 20.2887C82.2559 20.1868 82.3982 20.0474 82.5034 19.8705C82.6077 19.694 82.6606 19.4725 82.6606 19.2062C82.6606 18.9876 82.6144 18.8071 82.5225 18.665C82.4306 18.523 82.3077 18.4051 82.1542 18.3124C82.0007 18.2192 81.8233 18.1438 81.6231 18.0856C81.4229 18.0275 81.2118 17.9725 80.9909 17.9215C80.6988 17.8559 80.4126 17.7821 80.1335 17.7001C79.8544 17.6178 79.6051 17.5044 79.3863 17.3583C79.1664 17.2126 78.9907 17.0248 78.8579 16.7954C78.7246 16.5657 78.6582 16.2723 78.6582 15.9152C78.6582 15.5432 78.7278 15.2237 78.8677 14.9555C79.0076 14.6873 79.197 14.4662 79.4357 14.2909C79.6747 14.1162 79.9492 13.9866 80.2602 13.9027C80.5708 13.8191 80.9027 13.7771 81.2554 13.7771C81.6558 13.7771 82.0297 13.8143 82.3762 13.8892C82.7232 13.964 83.0405 14.0615 83.3289 14.1818V15.0073C83.0182 14.8799 82.6967 14.776 82.3653 14.6956C82.0334 14.6157 81.6786 14.5734 81.3 14.57C81.0153 14.57 80.7679 14.6 80.5583 14.6603C80.3483 14.7203 80.1736 14.8058 80.035 14.917C79.8961 15.0286 79.7939 15.1632 79.7259 15.3217C79.6585 15.48 79.6247 15.6557 79.6247 15.8488Z" fill="white"/>
<path d="M87.4835 21.3663H86.5674V14.6106H84.0547V13.7771H89.996V14.6106H87.4835V21.3663Z" fill="white"/>
<path d="M91.6322 18.2226V21.3649H90.7158V13.7757H92.6643C92.9936 13.7757 93.2737 13.7882 93.5034 13.8129C93.7336 13.8374 93.9442 13.8761 94.1356 13.929C94.659 14.0729 95.0597 14.3174 95.3366 14.6637C95.6136 15.0094 95.7524 15.4414 95.7524 15.9595C95.7524 16.2659 95.703 16.5399 95.6061 16.7821C95.5087 17.024 95.3717 17.234 95.1959 17.4117C95.0196 17.5893 94.809 17.7348 94.5631 17.8487C94.3172 17.9621 94.0451 18.045 93.7453 18.0981V18.1209L95.9712 21.3649H95.0554L92.7392 18.2226H91.6322ZM91.6322 14.6095V17.3888H92.5366C92.8183 17.3888 93.0578 17.3795 93.2564 17.3604C93.455 17.3421 93.6329 17.3076 93.7907 17.2587C94.109 17.1602 94.3544 17.0033 94.5265 16.7879C94.6991 16.5723 94.7854 16.2909 94.7854 15.943C94.7816 15.6172 94.6993 15.3554 94.5379 15.1573C94.3772 14.9587 94.1537 14.8158 93.8693 14.729C93.7339 14.6873 93.5732 14.657 93.3855 14.6382C93.1983 14.6193 92.9606 14.6098 92.6715 14.6098L91.6322 14.6095Z" fill="white"/>
<path d="M99.9742 20.5591C100.247 20.5591 100.49 20.5277 100.702 20.4643C100.914 20.4016 101.098 20.3121 101.256 20.1969C101.413 20.0822 101.544 19.9438 101.649 19.7821C101.754 19.6207 101.835 19.4417 101.891 19.2449C101.928 19.1225 101.954 18.986 101.97 18.8358C101.984 18.6855 101.992 18.5399 101.992 18.3987V13.7771H102.908V18.3761C102.908 18.5508 102.899 18.7327 102.88 18.9218C102.861 19.1114 102.832 19.2877 102.79 19.451C102.719 19.7255 102.612 19.9797 102.47 20.2136C102.328 20.4478 102.142 20.6501 101.913 20.8206C101.684 20.9911 101.41 21.1249 101.089 21.2216C100.769 21.3177 100.393 21.3663 99.9625 21.3663C99.5502 21.3663 99.1888 21.3217 98.8776 21.2327C98.5664 21.1438 98.2998 21.02 98.0767 20.8623C97.8537 20.7046 97.6707 20.5168 97.5287 20.2996C97.3866 20.0827 97.2761 19.8458 97.1967 19.5901C97.1407 19.4045 97.1009 19.2056 97.0765 18.994C97.0515 18.7824 97.0396 18.5766 97.0396 18.3761V13.7771H97.9559V18.3984C97.9559 18.5654 97.9678 18.737 97.9923 18.9133C98.0172 19.0896 98.0549 19.2502 98.108 19.395C98.2392 19.7548 98.457 20.0389 98.7626 20.2468C99.0682 20.4547 99.4716 20.5591 99.9742 20.5591Z" fill="white"/>
<path d="M107.965 14.5686C107.544 14.5686 107.15 14.6334 106.785 14.7627C106.418 14.8923 106.101 15.0854 105.832 15.3424C105.561 15.5994 105.349 15.9183 105.194 16.2994C105.038 16.6801 104.961 17.1236 104.961 17.6305C104.961 18.1337 105.033 18.5702 105.177 18.9401C105.321 19.3105 105.526 19.6164 105.791 19.8585C106.057 20.101 106.376 20.2807 106.75 20.3973C107.123 20.5139 107.54 20.5723 107.999 20.5723C108.124 20.5723 108.257 20.5657 108.397 20.5532C108.537 20.5404 108.679 20.5221 108.821 20.4985C108.963 20.4746 109.102 20.4475 109.236 20.4164C109.371 20.3856 109.491 20.3516 109.598 20.3153V21.1026C109.376 21.1862 109.12 21.251 108.828 21.2964C108.535 21.3421 108.236 21.3649 107.928 21.3649C107.303 21.3649 106.748 21.2805 106.264 21.1108C105.781 20.9411 105.375 20.6976 105.047 20.3806C104.719 20.0635 104.471 19.6764 104.302 19.2189C104.134 18.7614 104.05 18.2425 104.05 17.6634C104.05 17.0946 104.138 16.5715 104.316 16.0941C104.495 15.6167 104.751 15.2064 105.086 14.8639C105.422 14.5214 105.829 14.2542 106.306 14.0628C106.785 13.8716 107.321 13.7757 107.916 13.7757C108.074 13.7757 108.229 13.7824 108.383 13.7949C108.537 13.8076 108.684 13.8262 108.825 13.8498C108.965 13.8735 109.095 13.9016 109.215 13.9343C109.335 13.9672 109.438 14.002 109.524 14.0381V14.8254C109.297 14.7529 109.048 14.6916 108.778 14.6424C108.51 14.5933 108.238 14.5686 107.965 14.5686Z" fill="white"/>
<path d="M113.353 21.3663H112.437V14.6106H109.924V13.7771H115.866V14.6106H113.353V21.3663Z" fill="white"/>
<path d="M119.491 20.5591C119.765 20.5591 120.007 20.5277 120.219 20.4643C120.431 20.4016 120.616 20.3121 120.773 20.1969C120.93 20.0822 121.062 19.9438 121.167 19.7821C121.271 19.6207 121.352 19.4417 121.408 19.2449C121.445 19.1225 121.472 18.986 121.487 18.8358C121.502 18.6855 121.509 18.5399 121.509 18.3987V13.7771H122.425V18.3761C122.425 18.5508 122.416 18.7327 122.398 18.9218C122.379 19.1114 122.349 19.2877 122.307 19.451C122.236 19.7255 122.129 19.9797 121.987 20.2136C121.845 20.4478 121.659 20.6501 121.431 20.8206C121.202 20.9913 120.928 21.1249 120.607 21.2216C120.287 21.3177 119.911 21.3663 119.48 21.3663C119.067 21.3663 118.706 21.3217 118.395 21.2327C118.084 21.1438 117.817 21.02 117.594 20.8623C117.371 20.7046 117.188 20.5168 117.046 20.2996C116.904 20.0827 116.793 19.8458 116.714 19.5901C116.658 19.4045 116.618 19.2056 116.594 18.994C116.569 18.7824 116.557 18.5766 116.557 18.3761V13.7771H117.473V18.3984C117.473 18.5654 117.485 18.737 117.51 18.9133C117.534 19.0896 117.573 19.2502 117.625 19.395C117.756 19.7548 117.975 20.0389 118.28 20.2468C118.585 20.4547 118.989 20.5591 119.491 20.5591Z" fill="white"/>
<path d="M124.764 18.2226V21.3649H123.848V13.7757H125.797C126.126 13.7757 126.406 13.7882 126.636 13.8129C126.866 13.8374 127.076 13.8761 127.268 13.929C127.792 14.0729 128.192 14.3174 128.469 14.6637C128.746 15.0094 128.885 15.4414 128.885 15.9595C128.885 16.2659 128.835 16.5399 128.738 16.7821C128.641 17.024 128.504 17.234 128.328 17.4117C128.152 17.5893 127.941 17.7348 127.695 17.8487C127.45 17.9621 127.178 18.045 126.878 18.0981V18.1209L129.104 21.3649H128.188L125.871 18.2226H124.764ZM124.764 14.6095V17.3888H125.669C125.951 17.3888 126.19 17.3795 126.389 17.3604C126.587 17.3421 126.765 17.3076 126.923 17.2587C127.241 17.1602 127.487 17.0033 127.659 16.7879C127.832 16.5723 127.918 16.2909 127.918 15.943C127.914 15.6172 127.832 15.3554 127.67 15.1573C127.51 14.9587 127.286 14.8158 127.002 14.729C126.866 14.6873 126.706 14.657 126.518 14.6382C126.331 14.6193 126.092 14.6098 125.804 14.6098L124.764 14.6095Z" fill="white"/>
<path d="M131.117 20.5325H134.973V21.3663H130.2V13.7771H134.764V14.6106H131.117V17.0609H134.36V17.8944H131.117V20.5325Z" fill="white"/>
<path d="M51.3375 33.1187H50.4209V25.5296H54.9065V26.3633H51.3375V28.8137H54.5021V29.6474H51.3375V33.1187Z" fill="white"/>
<path d="M56.6834 25.5296H55.7671V33.1187H56.6834V25.5296Z" fill="white"/>
<path d="M61.9956 29.7597C62.4563 30.4291 62.912 31.1176 63.3618 31.8242H63.3955C63.3464 31.0871 63.3225 30.3349 63.3225 29.5667V25.5282H64.2442V33.1174H63.3283L60.3772 28.8864C59.8677 28.149 59.4123 27.4607 59.0111 26.8216H58.9773C59.0262 27.5136 59.0506 28.3208 59.0506 29.2435V33.1174H58.1343V25.5282H59.0448L61.9956 29.7597Z" fill="white"/>
<path d="M64.9302 33.1187L67.9936 25.5296H68.786L71.8499 33.1187H70.8547L69.957 30.833H66.812L65.9137 33.1187H64.9302ZM68.3821 26.7096C68.0459 27.6543 67.7254 28.5125 67.4203 29.2847L67.1391 29.9993H69.6319L69.3468 29.2852C69.0382 28.4993 68.7244 27.6408 68.4044 26.7096H68.3821Z" fill="white"/>
<path d="M76.4037 29.7597C76.8641 30.4291 77.3195 31.1176 77.7698 31.8242H77.8035C77.7547 31.0871 77.7305 30.3349 77.7305 29.5667V25.5282H78.6522V33.1174H77.7361L74.7847 28.8864C74.2749 28.149 73.82 27.4607 73.4191 26.8216H73.3854C73.4337 27.5136 73.4579 28.3208 73.4579 29.2435V33.1174H72.5415V25.5282H73.4528L76.4037 29.7597Z" fill="white"/>
<path d="M83.7312 26.3222C83.31 26.3222 82.9165 26.387 82.5509 26.516C82.1842 26.6459 81.8669 26.8392 81.5976 27.0962C81.3273 27.3532 81.1154 27.6721 80.9598 28.0532C80.8042 28.4342 80.727 28.8777 80.727 29.3846C80.727 29.8875 80.7986 30.324 80.9428 30.6942C81.087 31.064 81.2917 31.3702 81.5573 31.6126C81.8228 31.8551 82.1422 32.0348 82.5161 32.1511C82.8894 32.2677 83.3061 32.3261 83.7644 32.3261C83.89 32.3261 84.0227 32.3197 84.1627 32.307C84.3031 32.2942 84.4449 32.2762 84.587 32.2523C84.7296 32.2287 84.8677 32.2013 85.0023 32.17C85.1366 32.1394 85.2575 32.1055 85.3637 32.0691V32.8561C85.1422 32.9403 84.886 33.0048 84.5936 33.0505C84.301 33.0959 84.0015 33.1187 83.6943 33.1187C83.0689 33.1187 82.5135 33.0343 82.0305 32.8646C81.5467 32.6949 81.1409 32.4517 80.8133 32.1347C80.4856 31.8174 80.237 31.4302 80.0684 30.973C79.8998 30.5152 79.8159 29.9969 79.8159 29.4172C79.8159 28.8484 79.9046 28.3256 80.0825 27.8479C80.2609 27.3708 80.5172 26.9602 80.8526 26.6177C81.1879 26.2752 81.5947 26.0081 82.0724 25.8166C82.5506 25.6252 83.0867 25.5296 83.6826 25.5296C83.8403 25.5296 83.9954 25.5359 84.1494 25.5487C84.3029 25.5614 84.4502 25.5797 84.5907 25.6034C84.7312 25.6273 84.8615 25.6552 84.9813 25.6881C85.1011 25.721 85.2043 25.7555 85.2904 25.7919V26.5792C85.0628 26.5067 84.8138 26.4454 84.5445 26.3965C84.2758 26.3469 84.0039 26.3222 83.7312 26.3222Z" fill="white"/>
<path d="M87.3372 32.2852H91.193V33.1187H86.4209V25.5296H90.9851V26.3633H87.3372V28.8137H90.5807V29.6472H87.3372V32.2852Z" fill="white"/>
</svg>
