<svg width="140" height="40" viewBox="0 0 140 40" fill="none" xmlns="http://www.w3.org/2000/svg">
<g clip-path="url(#clip0_2003_774)">
<rect width="140" height="40" fill="white"/>
<path d="M49.3397 2H47.3945V38.0699H49.3397V2Z" fill="#58595B"/>
<path d="M12.4344 5.10254H1.5V36.1305H12.4344V5.10254Z" fill="#58595B"/>
<path d="M24.6917 5.10254H13.7573V36.1305H24.6917V5.10254Z" fill="#58595B"/>
<path d="M43.1382 14.8433L43.5011 3.93896H43.1382C31.895 4.35464 28.0011 11.4249 26.6767 15.6183C26.6734 15.6301 26.0142 18.1326 26.0142 20.6124V29.5782V36.1302H36.9489V29.5782H43.1382V18.6736H36.9489C36.9489 14.8417 43.1382 14.8433 43.1382 14.8433Z" fill="#F58220"/>
<path d="M54.5659 3.93896H53.6187V11.7601H54.5659V3.93896Z" fill="#58595B"/>
<path d="M60.0568 8.29956C60.533 8.98942 61.004 9.699 61.4687 10.4274H61.5035C61.453 9.66753 61.4283 8.89201 61.4283 8.10089V3.93896H62.381V11.7601H61.4341L58.3836 7.39953C57.8569 6.6396 57.3865 5.93031 56.9717 5.27191H56.9369C56.9871 5.98504 57.0126 6.81693 57.0126 7.76786V11.7601H56.0654V3.93896H57.0069L60.0568 8.29956Z" fill="#58595B"/>
<path d="M70.1733 7.81465C70.1733 8.27082 70.1173 8.69908 70.0045 9.10053C69.8925 9.50197 69.7229 9.86346 69.4959 10.185C69.2695 10.5065 68.9868 10.7843 68.6478 11.018C68.3088 11.2517 67.9128 11.4328 67.4596 11.5614C67.2002 11.6356 66.9192 11.6871 66.6173 11.7163C66.3153 11.7456 65.9879 11.7601 65.6352 11.7601H63.875V3.93896H65.6528C66.0052 3.93896 66.3329 3.95374 66.6348 3.98302C66.9373 4.01203 67.2175 4.06375 67.4772 4.13763C67.9301 4.26652 68.3264 4.44576 68.6654 4.67563C69.0041 4.90577 69.2851 5.17722 69.5077 5.4911C69.7306 5.8047 69.8969 6.15743 70.0075 6.54903C70.1184 6.94062 70.1733 7.36258 70.1733 7.81465ZM69.2316 7.81465C69.2316 7.06266 69.0666 6.4527 68.737 5.98504C68.4074 5.51737 67.9344 5.18626 67.318 4.99142C67.0825 4.91726 66.8195 4.86663 66.5291 4.83927C66.2385 4.8119 65.9108 4.79849 65.546 4.79849H64.8217V10.9011H65.546C65.9108 10.9011 66.2385 10.8875 66.5291 10.8601C66.8195 10.833 67.0825 10.7821 67.318 10.7082C67.9344 10.5131 68.4074 10.1721 68.737 9.68504C69.0669 9.19795 69.2316 8.57457 69.2316 7.81465Z" fill="#58595B"/>
<path d="M78.3318 7.85542C78.3318 8.42626 78.2465 8.95029 78.0782 9.42726C77.9089 9.90451 77.6671 10.3158 77.3514 10.6614C77.0363 11.007 76.6573 11.2763 76.2134 11.4698C75.7696 11.6635 75.2726 11.7601 74.7231 11.7601C74.1544 11.7601 73.6455 11.6635 73.1962 11.4698C72.7463 11.2763 72.3659 11.007 72.0544 10.6614C71.7434 10.3158 71.5049 9.90451 71.3396 9.42726C71.1744 8.95029 71.0918 8.42626 71.0918 7.85542C71.0918 7.28022 71.1774 6.75371 71.3484 6.27456C71.5194 5.79567 71.7618 5.38356 72.0747 5.03794C72.3879 4.69232 72.7672 4.42278 73.2126 4.22931C73.6587 4.03584 74.1582 3.93896 74.7115 3.93896C75.2767 3.93896 75.7825 4.03584 76.2302 4.22931C76.6779 4.42278 77.0574 4.69232 77.3687 5.03794C77.6802 5.38356 77.9182 5.79567 78.0834 6.27456C78.2487 6.75371 78.3318 7.28022 78.3318 7.85542ZM77.3898 7.85542C77.3898 7.34808 77.3212 6.90121 77.1845 6.51427C77.0473 6.12733 76.8585 5.80415 76.618 5.54501C76.3773 5.28559 76.0932 5.08966 75.7661 4.95612C75.4392 4.82285 75.0873 4.75608 74.7115 4.75608C74.3358 4.75608 73.9842 4.82285 73.657 4.95612C73.3301 5.08966 73.0463 5.28559 72.8056 5.54501C72.5643 5.80415 72.3758 6.12733 72.2385 6.51427C72.1013 6.90121 72.0327 7.34808 72.0327 7.85542C72.0327 8.3625 72.1024 8.80854 72.2413 9.19357C72.3802 9.57859 72.5704 9.90067 72.8111 10.1598C73.0518 10.419 73.3359 10.6146 73.6631 10.746C73.9902 10.8773 74.3435 10.9433 74.7233 10.9433C75.0991 10.9433 75.4493 10.8773 75.7718 10.746C76.0943 10.6146 76.377 10.419 76.6177 10.1598C76.8585 9.90067 77.047 9.57859 77.1843 9.19357C77.3212 8.80854 77.3898 8.3625 77.3898 7.85542Z" fill="#58595B"/>
<path d="M83.5901 8.29956C84.0666 8.98942 84.5373 9.699 85.0022 10.4274H85.0371C84.9871 9.66753 84.9616 8.89201 84.9616 8.10089V3.93896H85.9148V11.7601H84.9676L81.9163 7.39953C81.3899 6.6396 80.9192 5.93031 80.5047 5.27191H80.4699C80.5198 5.98504 80.5453 6.81693 80.5453 7.76786V11.7601H79.5981V3.93896H80.5396L83.5901 8.29956Z" fill="#58595B"/>
<path d="M88.3549 10.9009H92.3413V11.7601H87.4082V3.93896H92.1256V4.79822H88.3549V7.32345H91.7081V8.18243H88.3549V10.9009Z" fill="#58595B"/>
<path d="M94.2469 6.07452C94.2469 6.29645 94.2936 6.47952 94.3863 6.62401C94.4791 6.76877 94.6034 6.88808 94.7599 6.98166C94.9163 7.0758 95.098 7.15269 95.3044 7.2129C95.5109 7.2731 95.7263 7.3292 95.9506 7.38174C96.2519 7.45316 96.5484 7.53225 96.8398 7.61844C97.1316 7.70492 97.391 7.82423 97.6188 7.97638C97.8466 8.12853 98.0311 8.32665 98.1727 8.57074C98.3138 8.81511 98.384 9.12871 98.384 9.51182C98.384 9.90259 98.308 10.2395 98.1551 10.5232C98.0028 10.8067 97.7912 11.0399 97.5219 11.2221C97.2524 11.4044 96.9332 11.5396 96.5656 11.6277C96.1973 11.7161 95.7947 11.7601 95.3574 11.7601C95.156 11.7601 94.9501 11.7478 94.7382 11.7234C94.5274 11.6991 94.326 11.6663 94.1341 11.6249C93.9428 11.5836 93.7691 11.5365 93.614 11.484C93.4592 11.4315 93.3373 11.3789 93.2478 11.3261V10.4868C93.3873 10.5541 93.5443 10.6163 93.7186 10.6726C93.8928 10.7287 94.0729 10.7769 94.259 10.8163C94.4451 10.8557 94.6325 10.8866 94.823 10.9091C95.0121 10.9318 95.1908 10.9433 95.3574 10.9433C95.6281 10.9433 95.8872 10.9206 96.1325 10.8754C96.379 10.8305 96.5947 10.7553 96.7806 10.6502C96.9667 10.5448 97.1135 10.4012 97.2222 10.2192C97.3301 10.0367 97.3852 9.80873 97.3852 9.53453C97.3852 9.30877 97.3375 9.12324 97.2425 8.97656C97.147 8.83016 97.0204 8.70866 96.8613 8.61288C96.7026 8.51738 96.5198 8.43939 96.3123 8.37919C96.1054 8.31926 95.8877 8.26289 95.6588 8.21007C95.3569 8.14248 95.0615 8.06641 94.7725 7.98212C94.4841 7.89729 94.2269 7.78017 94.0002 7.62994C93.7734 7.4797 93.5912 7.28596 93.454 7.04953C93.3162 6.81282 93.2476 6.51044 93.2476 6.14211C93.2476 5.759 93.32 5.42953 93.4641 5.15314C93.6088 4.87731 93.8045 4.64908 94.0512 4.46875C94.2982 4.28841 94.5826 4.15487 94.904 4.0684C95.2251 3.9822 95.5677 3.93896 95.9322 3.93896C96.3461 3.93896 96.7331 3.97755 97.0913 4.05472C97.45 4.13161 97.7774 4.23204 98.0761 4.35601V5.20678C97.7544 5.07543 97.422 4.96843 97.0795 4.88579C96.7364 4.80315 96.3697 4.75991 95.9783 4.75608C95.684 4.75608 95.4282 4.787 95.2117 4.84885C94.9946 4.91097 94.8145 4.99935 94.6712 5.11401C94.5277 5.2284 94.4215 5.36741 94.3518 5.53078C94.2823 5.69415 94.2469 5.8753 94.2469 6.07452Z" fill="#58595B"/>
<path d="M100.528 3.93896H99.5811V11.7601H100.528V3.93896Z" fill="#58595B"/>
<path d="M101.244 11.7601L104.41 3.93896H105.229L108.396 11.7601H107.367L106.439 9.40428H103.189L102.26 11.7601H101.244ZM104.811 5.15479C104.464 6.12815 104.132 7.01286 103.817 7.80863L103.526 8.54529H106.103L105.809 7.80918C105.489 6.99945 105.164 6.11447 104.834 5.15479H104.811Z" fill="#58595B"/>
<path d="M54.5659 16.1973H53.6187V24.0184H54.5659V16.1973Z" fill="#58595B"/>
<path d="M60.0568 20.5579C60.533 21.2477 61.004 21.9573 61.4687 22.6857H61.5035C61.453 21.9258 61.4283 21.1503 61.4283 20.3589V16.1973H62.381V24.0184H61.4341L58.3836 19.6578C57.8569 18.8985 57.3865 18.1886 56.9717 17.5302H56.9369C56.9871 18.2433 57.0126 19.0752 57.0126 20.0262V24.0184H56.0654V16.1973H57.0069L60.0568 20.5579Z" fill="#58595B"/>
<path d="M64.8219 24.0184H63.875V16.1973H68.5111V17.0562H64.8219V19.5818H68.0931V20.4407H64.8219V24.0184Z" fill="#58595B"/>
<path d="M70.3481 20.7801V24.0184H69.4009V16.1973H71.415C71.7558 16.1973 72.0449 16.2101 72.2828 16.2356C72.5213 16.2608 72.7385 16.3007 72.9358 16.3552C73.4773 16.5035 73.8915 16.7555 74.1778 17.1123C74.4641 17.4686 74.6071 17.9139 74.6071 18.4478C74.6071 18.7635 74.5566 19.0459 74.4558 19.2955C74.3551 19.5448 74.214 19.7613 74.0318 19.9443C73.8495 20.1274 73.6319 20.2774 73.3782 20.3948C73.1246 20.5116 72.8422 20.597 72.5329 20.6517V20.6753L74.8338 24.0184H73.8866L71.4924 20.7801H70.3481ZM70.3481 17.0565V19.9208H71.284C71.5742 19.9208 71.8223 19.9112 72.0276 19.8915C72.2329 19.8726 72.4168 19.8371 72.5798 19.7867C72.9089 19.6852 73.162 19.5235 73.3409 19.3015C73.5188 19.0793 73.608 18.7893 73.608 18.4308C73.6041 18.095 73.5191 17.8252 73.3522 17.6211C73.1856 17.4164 72.955 17.2691 72.6605 17.1797C72.5211 17.1367 72.3545 17.1055 72.161 17.0861C71.9675 17.0666 71.7213 17.0568 71.4229 17.0568L70.3481 17.0565Z" fill="#58595B"/>
<path d="M75.1831 24.0184L78.3491 16.1973H79.1682L82.3353 24.0184H81.3066L80.3786 21.6628H77.1283L76.1992 24.0184H75.1831ZM78.7501 17.4131C78.4032 18.3867 78.0719 19.2712 77.7568 20.0669L77.4656 20.8033H80.0426L79.7484 20.0675C79.4295 19.2572 79.1039 18.3725 78.7738 17.4131H78.7501Z" fill="#58595B"/>
<path d="M83.8057 18.3328C83.8057 18.5547 83.8524 18.7375 83.9446 18.8822C84.0379 19.027 84.1623 19.1463 84.3182 19.2402C84.4746 19.3343 84.6569 19.4112 84.8633 19.4714C85.0691 19.5313 85.2851 19.588 85.5088 19.6403C85.8107 19.7119 86.1072 19.7908 86.3987 19.877C86.6904 19.9634 86.9498 20.0827 87.1776 20.2349C87.4054 20.3873 87.5899 20.5852 87.7315 20.8293C87.872 21.0736 87.9428 21.3872 87.9428 21.7703C87.9428 22.1611 87.8668 22.498 87.7139 22.7817C87.561 23.065 87.35 23.2984 87.0802 23.4806C86.8112 23.6626 86.492 23.7978 86.1239 23.8859C85.7561 23.9743 85.3535 24.0184 84.9162 24.0184C84.7148 24.0184 84.5084 24.006 84.297 23.9817C84.0857 23.9571 83.8842 23.9245 83.6929 23.8832C83.5011 23.8419 83.3279 23.7948 83.1725 23.7422C83.018 23.6897 82.8964 23.6369 82.8069 23.5844V22.7451C82.9463 22.8124 83.1028 22.8748 83.2776 22.9312C83.4519 22.9873 83.632 23.0354 83.8181 23.0745C84.0042 23.1137 84.1916 23.1449 84.3816 23.1673C84.5712 23.19 84.7499 23.2015 84.9165 23.2015C85.1871 23.2015 85.4457 23.1785 85.6916 23.1334C85.9375 23.0885 86.1538 23.0135 86.3396 22.9084C86.5255 22.8034 86.6726 22.6597 86.7813 22.4774C86.8891 22.2955 86.9438 22.0672 86.9438 21.7928C86.9438 21.5676 86.896 21.3815 86.801 21.2351C86.7061 21.0887 86.579 20.9672 86.4203 20.8717C86.2617 20.7756 86.0784 20.6979 85.8714 20.638C85.6644 20.578 85.4462 20.5214 85.2179 20.4689C84.916 20.4013 84.6201 20.3252 84.3316 20.2406C84.0431 20.1558 83.7854 20.039 83.5592 19.8885C83.332 19.7382 83.1503 19.5448 83.013 19.3083C82.8753 19.0716 82.8066 18.7692 82.8066 18.4012C82.8066 18.0178 82.8786 17.6886 83.0232 17.4122C83.1678 17.1358 83.3635 16.9079 83.6103 16.7273C83.8573 16.5472 84.1411 16.4137 84.4625 16.3272C84.7837 16.241 85.1268 16.1978 85.4913 16.1978C85.9052 16.1978 86.2916 16.2361 86.6498 16.3132C87.0085 16.3904 87.3365 16.4908 87.6346 16.6148V17.4656C87.3135 17.3342 86.9811 17.2272 86.6385 17.1443C86.2955 17.0619 85.9288 17.0184 85.5374 17.0149C85.2431 17.0149 84.9873 17.0458 84.7708 17.1079C84.5537 17.1698 84.3731 17.2579 84.2298 17.3725C84.0862 17.4875 83.9806 17.6262 83.9103 17.7896C83.8406 17.9527 83.8057 18.1338 83.8057 18.3328Z" fill="#58595B"/>
<path d="M91.929 24.0184H90.9821V17.0562H88.3848V16.1973H94.5261V17.0562H91.929V24.0184Z" fill="#58595B"/>
<path d="M96.2177 20.7801V24.0184H95.2705V16.1973H97.2846C97.6249 16.1973 97.9145 16.2101 98.1519 16.2356C98.3899 16.2608 98.6075 16.3007 98.8054 16.3552C99.3464 16.5035 99.7606 16.7555 100.047 17.1123C100.333 17.4686 100.477 17.9139 100.477 18.4478C100.477 18.7635 100.426 19.0459 100.325 19.2955C100.225 19.5448 100.083 19.7613 99.9014 19.9443C99.7192 20.1274 99.5015 20.2774 99.2473 20.3948C98.9932 20.5116 98.7118 20.597 98.402 20.6517V20.6753L100.703 24.0184H99.7562L97.362 20.7801H96.2177ZM96.2177 17.0565V19.9208H97.1526C97.4438 19.9208 97.6914 19.9112 97.8967 19.8915C98.102 19.8726 98.2859 19.8371 98.4489 19.7867C98.778 19.6852 99.0316 19.5235 99.2095 19.3015C99.3879 19.0793 99.4771 18.7893 99.4771 18.4308C99.4732 18.095 99.3881 17.8252 99.2213 17.6211C99.0552 17.4164 98.8241 17.2691 98.5301 17.1797C98.3902 17.1367 98.2241 17.1055 98.03 17.0861C97.8365 17.0666 97.5909 17.0568 97.292 17.0568L96.2177 17.0565Z" fill="#58595B"/>
<path d="M104.841 23.1865C105.123 23.1865 105.374 23.1542 105.593 23.0888C105.812 23.0243 106.002 22.932 106.165 22.8133C106.328 22.6951 106.463 22.5525 106.572 22.3858C106.68 22.2195 106.764 22.035 106.822 21.8322C106.86 21.7061 106.887 21.5654 106.903 21.4105C106.918 21.2557 106.926 21.1057 106.926 20.9601V16.1973H107.874V20.9369C107.874 21.1169 107.864 21.3044 107.844 21.4992C107.825 21.6946 107.794 21.8763 107.751 22.0446C107.678 22.3275 107.567 22.5894 107.42 22.8305C107.273 23.0719 107.081 23.2804 106.845 23.4561C106.608 23.6318 106.325 23.7697 105.993 23.8693C105.662 23.9683 105.274 24.0184 104.829 24.0184C104.402 24.0184 104.029 23.9724 103.707 23.8808C103.385 23.7891 103.11 23.6616 102.879 23.499C102.649 23.3365 102.46 23.143 102.313 22.9192C102.166 22.6956 102.052 22.4515 101.97 22.188C101.912 21.9967 101.871 21.7917 101.845 21.5736C101.819 21.3555 101.807 21.1435 101.807 20.9369V16.1973H102.754V20.9598C102.754 21.132 102.767 21.3087 102.792 21.4905C102.818 21.6722 102.857 21.8377 102.912 21.9869C103.047 22.3576 103.272 22.6504 103.588 22.8647C103.904 23.079 104.321 23.1865 104.841 23.1865Z" fill="#58595B"/>
<path d="M113.1 17.0144C112.665 17.0144 112.258 17.0812 111.88 17.2144C111.501 17.348 111.173 17.5469 110.895 17.8118C110.616 18.0767 110.396 18.4053 110.236 18.798C110.075 19.1904 109.995 19.6474 109.995 20.1698C109.995 20.6884 110.069 21.1383 110.218 21.5195C110.367 21.9012 110.579 22.2164 110.853 22.466C111.128 22.7159 111.458 22.9011 111.844 23.0212C112.23 23.1414 112.661 23.2016 113.135 23.2016C113.264 23.2016 113.402 23.1947 113.546 23.1819C113.692 23.1687 113.838 23.1499 113.985 23.1255C114.132 23.1009 114.275 23.073 114.414 23.0409C114.553 23.0092 114.678 22.9742 114.788 22.9367V23.7481C114.559 23.8343 114.294 23.901 113.992 23.9478C113.69 23.9949 113.38 24.0184 113.062 24.0184C112.416 24.0184 111.842 23.9314 111.342 23.7565C110.842 23.5817 110.423 23.3307 110.084 23.004C109.745 22.6773 109.489 22.2783 109.314 21.8068C109.14 21.3353 109.053 20.8006 109.053 20.2038C109.053 19.6176 109.145 19.0785 109.329 18.5865C109.513 18.0945 109.778 17.6717 110.125 17.3187C110.471 16.9657 110.892 16.6904 111.386 16.4931C111.88 16.2961 112.434 16.1973 113.05 16.1973C113.213 16.1973 113.373 16.2041 113.533 16.217C113.691 16.2301 113.844 16.2493 113.989 16.2736C114.134 16.298 114.269 16.327 114.393 16.3606C114.516 16.3946 114.623 16.4304 114.712 16.4676V17.279C114.477 17.2043 114.22 17.1411 113.941 17.0905C113.663 17.0398 113.382 17.0144 113.1 17.0144Z" fill="#58595B"/>
<path d="M118.669 24.0184H117.723V17.0562H115.125V16.1973H121.267V17.0562H118.669V24.0184Z" fill="#58595B"/>
<path d="M125.015 23.1865C125.297 23.1865 125.548 23.1542 125.768 23.0888C125.986 23.0243 126.177 22.932 126.34 22.8133C126.503 22.6951 126.638 22.5525 126.747 22.3858C126.855 22.2195 126.938 22.035 126.996 21.8322C127.035 21.7061 127.062 21.5654 127.078 21.4105C127.093 21.2557 127.101 21.1057 127.101 20.9601V16.1973H128.048V20.9369C128.048 21.1169 128.038 21.3044 128.019 21.4992C128 21.6946 127.969 21.8763 127.926 22.0446C127.852 22.3275 127.742 22.5894 127.594 22.8305C127.448 23.0719 127.256 23.2804 127.02 23.4561C126.783 23.632 126.5 23.7697 126.168 23.8693C125.837 23.9683 125.448 24.0184 125.003 24.0184C124.577 24.0184 124.204 23.9724 123.881 23.8808C123.56 23.7891 123.284 23.6616 123.054 23.499C122.824 23.3365 122.634 23.143 122.487 22.9192C122.34 22.6956 122.226 22.4515 122.144 22.188C122.087 21.9967 122.045 21.7917 122.02 21.5736C121.994 21.3555 121.981 21.1435 121.981 20.9369V16.1973H122.929V20.9598C122.929 21.132 122.941 21.3087 122.967 21.4905C122.992 21.6722 123.032 21.8377 123.086 21.9869C123.222 22.3576 123.447 22.6504 123.763 22.8647C124.078 23.079 124.496 23.1865 125.015 23.1865Z" fill="#58595B"/>
<path d="M130.465 20.7801V24.0184H129.518V16.1973H131.532C131.872 16.1973 132.162 16.2101 132.4 16.2356C132.637 16.2608 132.855 16.3007 133.053 16.3552C133.595 16.5035 134.008 16.7555 134.294 17.1123C134.581 17.4686 134.724 17.9139 134.724 18.4478C134.724 18.7635 134.673 19.0459 134.573 19.2955C134.472 19.5448 134.331 19.7613 134.149 19.9443C133.967 20.1274 133.749 20.2774 133.495 20.3948C133.241 20.5116 132.96 20.597 132.65 20.6517V20.6753L134.95 24.0184H134.004L131.61 20.7801H130.465ZM130.465 17.0565V19.9208H131.401C131.691 19.9208 131.939 19.9112 132.144 19.8915C132.35 19.8726 132.533 19.8371 132.696 19.7867C133.026 19.6852 133.279 19.5235 133.457 19.3015C133.636 19.0793 133.725 18.7893 133.725 18.4308C133.721 18.095 133.636 17.8252 133.469 17.6211C133.303 17.4164 133.072 17.2691 132.778 17.1797C132.638 17.1367 132.472 17.1055 132.278 17.0861C132.084 17.0666 131.838 17.0568 131.54 17.0568L130.465 17.0565Z" fill="#58595B"/>
<path d="M137.031 23.1592H141.017V24.0184H136.084V16.1973H140.802V17.0562H137.031V19.5815H140.384V20.4405H137.031V23.1592Z" fill="#58595B"/>
<path d="M54.5661 36.1302H53.6187V28.3091H58.2553V29.1683H54.5661V31.6936H57.8373V32.5528H54.5661V36.1302Z" fill="#58595B"/>
<path d="M60.0917 28.3091H59.1445V36.1302H60.0917V28.3091Z" fill="#58595B"/>
<path d="M65.5832 32.6699C66.0594 33.3598 66.5304 34.0694 66.9953 34.7976H67.0302C66.9794 34.0379 66.9547 33.2627 66.9547 32.471V28.3091H67.9074V36.1302H66.9607L63.9103 31.7699C63.3835 31.01 62.9128 30.3007 62.4981 29.642H62.4632C62.5137 30.3552 62.539 31.187 62.539 32.138V36.1302H61.5918V28.3091H62.533L65.5832 32.6699Z" fill="#58595B"/>
<path d="M68.6162 36.1302L71.7828 28.3091H72.6018L75.769 36.1302H74.7402L73.8122 33.7747H70.5614L69.6329 36.1302H68.6162ZM72.1843 29.5252C71.8369 30.4988 71.5056 31.3833 71.1902 32.179L70.8995 32.9154H73.4763L73.1815 32.1796C72.8626 31.3696 72.5381 30.4849 72.2074 29.5252H72.1843Z" fill="#58595B"/>
<path d="M80.4761 32.6699C80.952 33.3598 81.4227 34.0694 81.8882 34.7976H81.9231C81.8726 34.0379 81.8476 33.2627 81.8476 32.471V28.3091H82.8003V36.1302H81.8534L78.8026 31.7699C78.2756 31.01 77.8055 30.3007 77.391 29.642H77.3562C77.4061 30.3552 77.4311 31.187 77.4311 32.138V36.1302H76.4839V28.3091H77.4259L80.4761 32.6699Z" fill="#58595B"/>
<path d="M88.0505 29.1264C87.6152 29.1264 87.2084 29.1932 86.8305 29.3262C86.4514 29.46 86.1234 29.6592 85.8451 29.9241C85.5657 30.189 85.3467 30.5176 85.1858 30.9103C85.025 31.303 84.9451 31.76 84.9451 32.2824C84.9451 32.8007 85.0192 33.2506 85.1683 33.632C85.3173 34.0132 85.5289 34.3287 85.8034 34.5786C86.0779 34.8284 86.4081 35.0137 86.7945 35.1335C87.1804 35.2537 87.6111 35.3139 88.0848 35.3139C88.2146 35.3139 88.3519 35.3073 88.4965 35.2942C88.6417 35.281 88.7883 35.2624 88.9351 35.2378C89.0825 35.2135 89.2252 35.1853 89.3644 35.153C89.5033 35.1215 89.6282 35.0865 89.738 35.049V35.8601C89.509 35.9468 89.2442 36.0133 88.942 36.0604C88.6395 36.1072 88.3299 36.1307 88.0124 36.1307C87.366 36.1307 86.7918 36.0437 86.2925 35.8688C85.7924 35.694 85.373 35.4433 85.0343 35.1166C84.6956 34.7896 84.4387 34.3906 84.2644 33.9194C84.0901 33.4476 84.0034 32.9134 84.0034 32.3161C84.0034 31.7299 84.0951 31.1911 84.279 30.6988C84.4634 30.2071 84.7283 29.784 85.075 29.431C85.4216 29.078 85.8421 28.8027 86.3359 28.6054C86.8302 28.4081 87.3844 28.3096 88.0003 28.3096C88.1633 28.3096 88.3236 28.3161 88.4828 28.3293C88.6414 28.3424 88.7938 28.3613 88.939 28.3856C89.0842 28.4103 89.2189 28.439 89.3427 28.4729C89.4665 28.5069 89.5733 28.5424 89.6622 28.5799V29.3913C89.427 29.3166 89.1695 29.2534 88.8912 29.203C88.6134 29.1519 88.3324 29.1264 88.0505 29.1264Z" fill="#58595B"/>
<path d="M91.7778 35.2713H95.7634V36.1302H90.8306V28.3091H95.5485V29.1683H91.7778V31.6936H95.1304V32.5526H91.7778V35.2713Z" fill="#58595B"/>
</g>
<defs>
<clipPath id="clip0_2003_774">
<rect width="140" height="40" fill="white"/>
</clipPath>
</defs>
</svg>
